<?xml version="1.0" encoding="utf-8"?>
<!-- Generator: Adobe Illustrator 16.0.0, SVG Export Plug-In . SVG Version: 6.00 Build 0)  -->
<!DOCTYPE svg PUBLIC "-//W3C//DTD SVG 1.1//EN" "http://www.w3.org/Graphics/SVG/1.1/DTD/svg11.dtd">
<svg version="1.1" id="Layer_1" xmlns="http://www.w3.org/2000/svg" xmlns:xlink="http://www.w3.org/1999/xlink" x="0px" y="0px"
	 width="172.08px" height="17.008px" viewBox="0 0 172.08 17.008" enable-background="new 0 0 172.08 17.008" xml:space="preserve">
<g>
	<g>
		<g>
			<path fill="#FFFFFF" d="M51.466,0.259c-4.289,0-6.86,1.692-7.802,5.135c-0.547-2.942-3.12-4.909-6.634-4.909H25.201L22.45,4.683
				l-2.557-4.198h-5.749l5.396,7.959l-5.517,7.582l-0.665-3.506l-4.063,0.004c-1.685,0-2.945-0.138-3.61-0.813
				c-0.34-0.345-0.52-0.822-0.543-1.46h10.045V8.336c0-5.283-2.411-8.077-6.97-8.077C2.688,0.259,0,3.058,0,8.819
				c0,3.929,1.023,7.944,8.615,7.944h10.517l3.072-4.612l2.851,4.612h10.217V12.9h0.601c3.773-0.044,6.337-1.354,7.38-3.677
				c0.073,3.797,1.279,7.54,8.612,7.54h5.546l-0.804-4.244l-4.063,0.004c-1.686,0-2.945-0.138-3.611-0.813
				c-0.34-0.345-0.52-0.822-0.544-1.46h10.045V8.336C58.434,3.053,56.025,0.259,51.466,0.259z M51.126,4.292
				c0.512,0,1.017,0.221,1.387,0.6c0.405,0.417,0.624,1.002,0.642,1.697h-4.61C48.719,4.898,50.023,4.292,51.126,4.292z
				 M35.985,8.99h-0.713V4.482h1.266c1.477,0,2.196,0.717,2.196,2.197C38.733,7.222,38.536,8.99,35.985,8.99z M25.113,8.423
				l5.202-7.205v14.83L25.113,8.423z M5.297,6.589c0.171-1.69,1.476-2.297,2.58-2.297c0.511,0,1.017,0.221,1.389,0.6
				c0.403,0.417,0.622,1.002,0.642,1.697H5.297z"/>
			<path fill="#FFFFFF" d="M116.621,0.259c-5.527,0-8.217,2.799-8.217,8.561c0,3.929,1.024,7.944,8.615,7.944h5.549l-0.806-4.244
				l-4.062,0.004c-1.686,0-2.944-0.138-3.61-0.813c-0.34-0.345-0.519-0.822-0.545-1.46h10.045V8.336
				C123.591,3.053,121.182,0.259,116.621,0.259z M116.282,4.292c0.511,0,1.018,0.221,1.388,0.6c0.405,0.417,0.625,1.002,0.644,1.697
				h-4.612C113.873,4.898,115.181,4.292,116.282,4.292z"/>
			<path fill="#FFFFFF" d="M74.799,13.024c-1.788-0.044-2.352-0.73-3.153-1.561c0,0-0.655-0.677-1.187-1.233
				c1.442-0.999,2.233-2.477,2.233-4.19c0-3.479-2.487-5.556-6.657-5.556h-6.716v16.279h4.956v-5.228h1.199
				c0.819,0.932,2.247,2.499,2.262,2.516c1.251,1.37,3.595,2.712,6.156,2.712c0.426,0,5.835,0,5.835,0V0.484h-4.927V13.024z
				 M64.274,4.514h1.268c1.814,0,2.11,0.475,2.11,1.616c0,0.755-0.277,1.757-2.662,1.757h-0.715V4.514z"/>
			<path fill="#FFFFFF" d="M101.969,0.021c-2.011,0-4.104,1.185-5.39,2.276c-0.76-1.453-2.386-2.276-4.513-2.276
				c-1.737,0-3.922,1.202-4.924,1.864V0.484h-5.276v16.279h5.276V5.444c0.877-0.439,2.077-0.729,3.037-0.729
				c1.304,0,1.762,0.186,1.762,2.281v9.767h5.246V6.563c0-0.357,0-0.727-0.042-1.097c0.847-0.413,2.077-0.808,3.049-0.808
				c1.236,0,1.791,0.339,1.791,2.339v9.767h5.275V6.46c0-1.377,0.001-2.938-0.657-4.208C105.823,0.751,104.308,0.021,101.969,0.021z
				"/>
		</g>
		<path fill="#FFFFFF" d="M135.16,16.771V6.953c0-2.241-0.506-2.627-2.178-2.627c-1.493,0-2.834,0.505-3.64,0.896v11.55h-4.984
			V0.475h4.984v1.641C130.328,1.371,132.476,0,134.654,0c5.104,0,5.461,2.833,5.461,6.534v10.237H135.16z"/>
		<path fill="#FFFFFF" d="M165.722,12.442v-7.43c0-4.719-3.64-4.569-7.07-4.569c-1.202,0-17.685,0-17.685,0v3.635h4.259v12.693
			h4.624V4.078c0,0,7.313,0,8.055,0c2.03,0,2.952,0.456,2.952,1.893v1.4h-2.832c-3.226,0-6.983,0.688-6.983,4.804
			c0,3.251,2.028,4.833,5.611,4.833c1.789,0,3.49-0.895,4.685-1.817c0.535,1.7,3.978,1.817,6.189,1.7v-3.762
			C166.6,13.099,165.722,13.194,165.722,12.442z M160.856,12.623c-1.073,0.298-2.652,0.506-3.609,0.506
			c-0.921,0-1.342-0.388-1.342-1.222c0-0.718-0.06-1.522,2.504-1.583l2.447-0.058V12.623z"/>
	</g>
	<g>
		<path fill="#FFFFFF" d="M170.204,16.992c-0.262,0-0.506-0.053-0.732-0.15c-0.229-0.099-0.428-0.232-0.598-0.402
			c-0.17-0.171-0.306-0.37-0.405-0.599c-0.099-0.228-0.149-0.473-0.149-0.732c0-0.262,0.051-0.503,0.149-0.731
			c0.1-0.228,0.235-0.427,0.405-0.593c0.17-0.17,0.369-0.303,0.598-0.402c0.227-0.1,0.471-0.149,0.732-0.149
			c0.26,0,0.503,0.05,0.73,0.149c0.229,0.1,0.425,0.232,0.595,0.402c0.171,0.166,0.306,0.365,0.403,0.593
			c0.097,0.229,0.147,0.47,0.147,0.731c0,0.26-0.051,0.505-0.147,0.732c-0.098,0.229-0.232,0.428-0.403,0.599
			c-0.17,0.17-0.366,0.304-0.595,0.402C170.707,16.939,170.464,16.992,170.204,16.992z M170.204,16.743
			c0.229,0,0.44-0.042,0.634-0.127c0.193-0.083,0.357-0.199,0.498-0.347c0.139-0.146,0.247-0.32,0.328-0.52
			c0.078-0.197,0.118-0.412,0.118-0.642c0-0.23-0.04-0.443-0.118-0.643c-0.081-0.197-0.189-0.37-0.328-0.516
			c-0.141-0.144-0.305-0.258-0.498-0.342c-0.193-0.086-0.404-0.127-0.634-0.127c-0.228,0-0.438,0.041-0.634,0.127
			c-0.194,0.084-0.362,0.198-0.504,0.342c-0.14,0.146-0.25,0.318-0.329,0.516c-0.079,0.199-0.12,0.412-0.12,0.643
			c0,0.229,0.041,0.444,0.12,0.642c0.079,0.199,0.189,0.373,0.329,0.52c0.142,0.147,0.31,0.264,0.504,0.347
			C169.766,16.701,169.977,16.743,170.204,16.743z M171.143,16.158h-0.307l-0.602-0.967h-0.472v0.967h-0.258V14.06h0.918
			c0.277,0,0.472,0.051,0.582,0.15c0.107,0.1,0.162,0.236,0.162,0.405c0,0.103-0.018,0.192-0.049,0.263
			c-0.033,0.074-0.081,0.133-0.14,0.177c-0.06,0.048-0.129,0.078-0.21,0.099c-0.083,0.021-0.17,0.036-0.264,0.038L171.143,16.158z
			 M170.156,14.989c0.071,0,0.152,0,0.236,0c0.086,0,0.169-0.012,0.243-0.031c0.073-0.021,0.133-0.055,0.183-0.111
			c0.048-0.05,0.071-0.131,0.071-0.235c0-0.083-0.017-0.147-0.047-0.195c-0.031-0.05-0.072-0.086-0.122-0.11
			c-0.049-0.023-0.105-0.042-0.169-0.049c-0.062-0.008-0.123-0.014-0.188-0.014h-0.601v0.746H170.156z"/>
	</g>
</g>
</svg>
